# xmcd CD database file
#
# Track frame offsets:
#	150
#	1144
#	22411
#	24266
#	44030
#	60129
#	77336
#	102637
#	129451
#	154779
#	183716
#	206001
#	218655
#	237076
#	266974
#	284903
#	300351
#
# Disc length: 4202 seconds
#
# Revision: 1
# Processed by: cddbd v1.5.1PL0 Copyright (c) Steve Scherf et al.
# Submitted via: CDex 1.51
#
DISCID=ed106811
DTITLE=Saltacello, Peter Schindler - 42.195 Great Son
DYEAR=2005
DGENRE=Jazz
TTITLE0=손기정 육성녹음 1936 [Prologue]
TTITLE1=위대한 손기정 Great Son - Marathon Man
TTITLE2=손기정 육성녹음 1936 [42.195 Great Son]
TTITLE3=위대한 손기정 Great Son - Lonesome Runner
TTITLE4=빨리 빨리 Dynamic Korea
TTITLE5=우리의 소원 Come Together
TTITLE6=나그네 설움 (Nageunae Seol-Whoom) Dawn Chorus
TTITLE7=가야 Gaya 1
TTITLE8=가야 Gaya2
TTITLE9=강원도아리랑 (Gangwondo-Arirang) Five in a Row
TTITLE10=진도아리랑 (Jindo-Arirang) East Circle
TTITLE11=옹헤야 Ong-Heya
TTITLE12=밀양아리랑 Milyang-Arirang
TTITLE13=강강술래 Ganggang Sullae
TTITLE14=영원 (Youngwon) Forever
TTITLE15=마라손 왕 Marathon King
TTITLE16=제패가 Jepega
EXTD=YEAR: 2005
EXTT0=
EXTT1=
EXTT2=
EXTT3=
EXTT4=
EXTT5=
EXTT6=
EXTT7=
EXTT8=
EXTT9=
EXTT10=
EXTT11=
EXTT12=
EXTT13=
EXTT14=
EXTT15=
EXTT16=
PLAYORDER=
